# xmcd
#
# Track frame offsets:
#	150
#	12419
#	25645
#	39869
#	52956
#	65394
#	77986
#	89011
#	101263
#	113517
#	127842
#	140517
#	153313
#	165543
#	176050
#	186837
#	198103
#	211828
#	223360
#	234812
#	246605
#	259980
#	273694
#	283942
#	294460
#	308017
#	318786
#	332129
#
# Disc length: 4610 seconds
#
# Revision: 0
# Processed by: cddbd v1.5.2PL0 Copyright (c) Steve Scherf et al.
# Submitted via: EasyCDDAExtractor 15.3.0.1
#
DISCID=9012001c
DTITLE=Slim Whitman - Rose Marie His 28 Finest 1949-1957
DYEAR=2008
DGENRE=Country
TTITLE0=I'm Casting My Lasso Towards the Sky
TTITLE1=Love Song of The Waterfall
TTITLE2=Indian Love Call
TTITLE3=China Doll
TTITLE4=Amateur in Love
TTITLE5=By the Waters of Minnetonka
TTITLE6=Keep it a Secret
TTITLE7=My Heart is Broken in Three
TTITLE8=There's a Rainbow in Every Teardrop
TTITLE9=Danny Boy
TTITLE10=North wind
TTITLE11=Secret Love
TTITLE12=There's a Loveknot in My Lariat
TTITLE13=Rose Marie
TTITLE14=Beautiful Dreamer
TTITLE15=The Singing Hills
TTITLE16=You Have My Heart
TTITLE17=When I Grow too Old to Dream
TTITLE18=The Cattle Call
TTITLE19=When My Blue Moon Turns to Gold Again
TTITLE20=Silver-haired Daddy of Mine
TTITLE21=Roll on Silvery Moon
TTITLE22=I'll Never Stop Loving You
TTITLE23=Song of the Wind
TTITLE24=I'm a Fool
TTITLE25=Serenade
TTITLE26=I'll Take You Home Again Kathleen
TTITLE27=Tumbling Tumbleweeds
EXTD=
EXTT0=
EXTT1=
EXTT2=
EXTT3=
EXTT4=
EXTT5=
EXTT6=
EXTT7=
EXTT8=
EXTT9=
EXTT10=
EXTT11=
EXTT12=
EXTT13=
EXTT14=
EXTT15=
EXTT16=
EXTT17=
EXTT18=
EXTT19=
EXTT20=
EXTT21=
EXTT22=
EXTT23=
EXTT24=
EXTT25=
EXTT26=
EXTT27=
PLAYORDER=
